<svg xmlns="http://www.w3.org/2000/svg" xmlns:xlink="http://www.w3.org/1999/xlink" width="500" zoomAndPan="magnify" viewBox="0 0 375 374.999991" height="500" preserveAspectRatio="xMidYMid meet" version="1.0"><defs><g/><clipPath id="5a3c4488e2"><path d="M 175 37 L 319 37 L 319 251 L 175 251 Z M 175 37 " clip-rule="nonzero"/></clipPath><clipPath id="ff5d4bc10e"><path d="M 19.394531 42.035156 L 296.535156 -30.605469 L 366.320312 235.648438 L 89.183594 308.289062 Z M 19.394531 42.035156 " clip-rule="nonzero"/></clipPath><clipPath id="2957624c7c"><path d="M 19.394531 42.035156 L 296.535156 -30.605469 L 366.320312 235.648438 L 89.183594 308.289062 Z M 19.394531 42.035156 " clip-rule="nonzero"/></clipPath><clipPath id="844772e97a"><path d="M 19.394531 42.035156 L 296.535156 -30.605469 L 366.320312 235.648438 L 89.183594 308.289062 Z M 19.394531 42.035156 " clip-rule="nonzero"/></clipPath><clipPath id="7bf6a28148"><path d="M 19 40 L 223 40 L 223 245 L 19 245 Z M 19 40 " clip-rule="nonzero"/></clipPath><clipPath id="2ee9970ab8"><path d="M 19.394531 42.035156 L 296.535156 -30.605469 L 366.320312 235.648438 L 89.183594 308.289062 Z M 19.394531 42.035156 " clip-rule="nonzero"/></clipPath><clipPath id="9f36df4ff2"><path d="M 19.394531 42.035156 L 296.535156 -30.605469 L 366.320312 235.648438 L 89.183594 308.289062 Z M 19.394531 42.035156 " clip-rule="nonzero"/></clipPath><clipPath id="ba2fc8ddcc"><path d="M 19.394531 42.035156 L 296.535156 -30.605469 L 366.320312 235.648438 L 89.183594 308.289062 Z M 19.394531 42.035156 " clip-rule="nonzero"/></clipPath></defs><rect x="-37.5" width="450" fill="#ffffff" y="-37.499999" height="449.999989" fill-opacity="1"/><rect x="-37.5" width="450" fill="#ffffff" y="-37.499999" height="449.999989" fill-opacity="1"/><g clip-path="url(#5a3c4488e2)"><g clip-path="url(#ff5d4bc10e)"><g clip-path="url(#2957624c7c)"><g clip-path="url(#844772e97a)"><path fill="#80cc28" d="M 313.285156 198.566406 C 339.660156 134.515625 263.578125 37.105469 263.578125 37.105469 C 263.578125 37.105469 244.074219 96.765625 211.742188 120.484375 C 190.136719 136.320312 138.648438 197.363281 220.859375 242.574219 C 221.734375 243.058594 222.652344 243.539062 223.597656 243.996094 C 251.160156 219.289062 300.53125 157.125 265.457031 48.511719 C 265.457031 48.511719 320.320312 168.304688 228.714844 246.269531 C 252.390625 255.726562 289.730469 255.773438 313.285156 198.566406 " fill-opacity="1" fill-rule="nonzero"/></g></g></g></g><g clip-path="url(#7bf6a28148)"><g clip-path="url(#2ee9970ab8)"><g clip-path="url(#9f36df4ff2)"><g clip-path="url(#ba2fc8ddcc)"><path fill="#27963c" d="M 179.222656 140.175781 C 152.972656 103.460938 108.480469 67.078125 33.066406 47.746094 C 33.066406 47.746094 129.382812 60.726562 184.753906 133.789062 C 189.105469 129.144531 193.355469 125.414062 196.839844 122.863281 C 206.839844 115.527344 215.601562 104.761719 222.953125 93.375 C 168.691406 27.144531 19.550781 42.03125 19.550781 42.03125 C 19.550781 42.03125 70.371094 103.378906 73.90625 154.121094 C 76.113281 185.847656 103.074219 272.492188 192.027344 236.28125 C 145.242188 203.035156 160.324219 163.785156 179.222656 140.175781 " fill-opacity="1" fill-rule="nonzero"/></g></g></g></g><g fill="#ffffff" fill-opacity="1"><g transform="translate(56.951865, 358.314386)"><g><path d="M 61.609375 -101.015625 C 69.253906 -101.015625 76.34375 -99.6875 82.875 -97.03125 C 89.414062 -94.382812 95.0625 -90.75 99.8125 -86.125 C 104.5625 -81.5 108.289062 -76.070312 111 -69.84375 C 113.71875 -63.613281 115.078125 -56.921875 115.078125 -49.765625 L 115.078125 -49.40625 C 115.078125 -42.25 113.71875 -35.554688 111 -29.328125 C 108.289062 -23.097656 104.53125 -17.640625 99.71875 -12.953125 C 94.914062 -8.265625 89.242188 -4.5625 82.703125 -1.84375 C 76.160156 0.863281 69.003906 2.21875 61.234375 2.21875 C 53.585938 2.21875 46.492188 0.894531 39.953125 -1.75 C 33.421875 -4.40625 27.78125 -8.046875 23.03125 -12.671875 C 18.28125 -17.296875 14.546875 -22.722656 11.828125 -28.953125 C 9.117188 -35.179688 7.765625 -41.875 7.765625 -49.03125 L 7.765625 -49.40625 C 7.765625 -56.550781 9.117188 -63.238281 11.828125 -69.46875 C 14.546875 -75.695312 18.3125 -81.15625 23.125 -85.84375 C 27.9375 -90.53125 33.609375 -94.226562 40.140625 -96.9375 C 46.679688 -99.65625 53.835938 -101.015625 61.609375 -101.015625 Z M 61.609375 -22.015625 C 65.679688 -22.015625 69.289062 -22.722656 72.4375 -24.140625 C 75.582031 -25.554688 78.265625 -27.5 80.484375 -29.96875 C 82.703125 -32.4375 84.394531 -35.304688 85.5625 -38.578125 C 86.738281 -41.847656 87.328125 -45.332031 87.328125 -49.03125 L 87.328125 -49.40625 C 87.328125 -53.101562 86.707031 -56.582031 85.46875 -59.84375 C 84.238281 -63.113281 82.453125 -66.015625 80.109375 -68.546875 C 77.765625 -71.078125 75.019531 -73.082031 71.875 -74.5625 C 68.726562 -76.039062 65.179688 -76.78125 61.234375 -76.78125 C 57.171875 -76.78125 53.566406 -76.070312 50.421875 -74.65625 C 47.273438 -73.238281 44.585938 -71.296875 42.359375 -68.828125 C 40.140625 -66.359375 38.441406 -63.488281 37.265625 -60.21875 C 36.097656 -56.945312 35.515625 -53.460938 35.515625 -49.765625 L 35.515625 -49.40625 C 35.515625 -45.695312 36.128906 -42.207031 37.359375 -38.9375 C 38.597656 -35.675781 40.390625 -32.78125 42.734375 -30.25 C 45.078125 -27.71875 47.851562 -25.710938 51.0625 -24.234375 C 54.269531 -22.753906 57.785156 -22.015625 61.609375 -22.015625 Z M 61.609375 -22.015625 "/></g></g></g><g fill="#ffffff" fill-opacity="1"><g transform="translate(160.55862, 358.314386)"><g><path d="M 19.609375 -100.28125 C 23.429688 -100.28125 26.421875 -99.320312 28.578125 -97.40625 C 30.742188 -95.5 32.316406 -93.125 33.296875 -90.28125 L 54.578125 -32.75 L 76.21875 -90.65625 C 77.207031 -93.125 78.71875 -95.34375 80.75 -97.3125 C 82.789062 -99.289062 85.660156 -100.28125 89.359375 -100.28125 C 93.054688 -100.28125 96.234375 -99.015625 98.890625 -96.484375 C 101.546875 -93.953125 102.875 -90.773438 102.875 -86.953125 C 102.875 -85.722656 102.6875 -84.457031 102.3125 -83.15625 C 101.945312 -81.863281 101.640625 -80.910156 101.390625 -80.296875 L 71.046875 -10.171875 C 69.441406 -6.597656 67.34375 -3.671875 64.75 -1.390625 C 62.164062 0.890625 58.960938 2.03125 55.140625 2.03125 L 53.65625 2.03125 C 49.832031 2.03125 46.625 0.921875 44.03125 -1.296875 C 41.4375 -3.515625 39.34375 -6.472656 37.75 -10.171875 L 7.40625 -80.296875 C 7.03125 -81.285156 6.6875 -82.332031 6.375 -83.4375 C 6.070312 -84.550781 5.921875 -85.785156 5.921875 -87.140625 C 5.921875 -90.472656 7.242188 -93.492188 9.890625 -96.203125 C 12.546875 -98.921875 15.785156 -100.28125 19.609375 -100.28125 Z M 19.609375 -100.28125 "/></g></g></g><g fill="#ffffff" fill-opacity="1"><g transform="translate(250.104349, 358.314386)"><g><path d="M 59.765625 -101.015625 C 67.285156 -101.015625 73.757812 -100.054688 79.1875 -98.140625 C 84.613281 -96.234375 89.425781 -93.492188 93.625 -89.921875 C 94.601562 -89.179688 95.585938 -88.007812 96.578125 -86.40625 C 97.566406 -84.800781 98.0625 -82.765625 98.0625 -80.296875 C 98.0625 -76.722656 96.828125 -73.734375 94.359375 -71.328125 C 91.890625 -68.921875 88.867188 -67.71875 85.296875 -67.71875 C 83.441406 -67.71875 81.835938 -68.023438 80.484375 -68.640625 C 79.128906 -69.253906 78.019531 -69.867188 77.15625 -70.484375 C 74.6875 -72.460938 72.0625 -74.003906 69.28125 -75.109375 C 66.507812 -76.222656 63.273438 -76.78125 59.578125 -76.78125 C 56.117188 -76.78125 52.910156 -76.070312 49.953125 -74.65625 C 46.992188 -73.238281 44.429688 -71.296875 42.265625 -68.828125 C 40.109375 -66.359375 38.441406 -63.488281 37.265625 -60.21875 C 36.097656 -56.945312 35.515625 -53.460938 35.515625 -49.765625 L 35.515625 -49.40625 C 35.515625 -45.570312 36.097656 -41.988281 37.265625 -38.65625 C 38.441406 -35.332031 40.140625 -32.4375 42.359375 -29.96875 C 44.585938 -27.5 47.242188 -25.554688 50.328125 -24.140625 C 53.410156 -22.722656 56.863281 -22.015625 60.6875 -22.015625 C 64.382812 -22.015625 67.742188 -22.597656 70.765625 -23.765625 C 73.785156 -24.941406 76.59375 -26.640625 79.1875 -28.859375 C 79.925781 -29.472656 80.941406 -30.054688 82.234375 -30.609375 C 83.535156 -31.171875 85.046875 -31.453125 86.765625 -31.453125 C 90.097656 -31.453125 92.90625 -30.28125 95.1875 -27.9375 C 97.46875 -25.59375 98.609375 -22.753906 98.609375 -19.421875 C 98.609375 -17.578125 98.238281 -15.914062 97.5 -14.4375 C 96.757812 -12.957031 95.773438 -11.660156 94.546875 -10.546875 C 90.347656 -6.722656 85.472656 -3.640625 79.921875 -1.296875 C 74.367188 1.046875 67.523438 2.21875 59.390625 2.21875 C 51.992188 2.21875 45.117188 0.863281 38.765625 -1.84375 C 32.410156 -4.5625 26.953125 -8.234375 22.390625 -12.859375 C 17.828125 -17.484375 14.25 -22.910156 11.65625 -29.140625 C 9.0625 -35.367188 7.765625 -42 7.765625 -49.03125 L 7.765625 -49.40625 C 7.765625 -56.425781 9.0625 -63.082031 11.65625 -69.375 C 14.25 -75.664062 17.828125 -81.15625 22.390625 -85.84375 C 26.953125 -90.53125 32.4375 -94.226562 38.84375 -96.9375 C 45.257812 -99.65625 52.234375 -101.015625 59.765625 -101.015625 Z M 59.765625 -101.015625 "/></g></g></g></svg>